# xmcd CD database file
#
# Track frame offsets:
#	150
#	29415
#	43632
#	57598
#	90468
#	115328
#	127946
#	142703
#	161381
#	174683
#	190106
#	206448
#	226222
#	239525
#	252249
#	268674
#	285615
#	297426
#	314757
#	332402
#	344616
#
# Disc length: 4753 seconds
#
# Revision: 2
# Processed by: cddbd v1.5.2PL0 Copyright (c) Steve Scherf et al.
# Submitted via: CDex 1.51
#
DISCID=38128f15
DTITLE=Al Cohn - Four Classic Albums Plus  [CD 1-2]
DYEAR=2009
DGENRE=Jazz
TTITLE0=Something For Lisa  .....  { Album ~ MR. Music - 1954 }
TTITLE1=Count Every Star
TTITLE2=Cabin In The Sky
TTITLE3=Move
TTITLE4=Never Never Land
TTITLE5=La Ronde
TTITLE6=This Reminds Me Of You
TTITLE7=Breakfast With Joe
TTITLE8=Cohn My Way
TTITLE9=The Lady Is A Tramp  .....  { Album ~ The Al Cohn Quintet - 1956 }
TTITLE10=Good Spirits
TTITLE11=A Blues Serenade
TTITLE12=Lazy Man Stomp
TTITLE13=Ill Wind
TTITLE14=Chloe
TTITLE15=Shine
TTITLE16=Back To Back
TTITLE17=So Far So Good
TTITLE18=Winter
TTITLE19=I Should Care
TTITLE20=Bunny Hunch
EXTD=YEAR: 2009
EXTT0=
EXTT1=
EXTT2=
EXTT3=
EXTT4=
EXTT5=
EXTT6=
EXTT7=
EXTT8=
EXTT9=
EXTT10=
EXTT11=
EXTT12=
EXTT13=
EXTT14=
EXTT15=
EXTT16=
EXTT17=
EXTT18=
EXTT19=
EXTT20=
PLAYORDER=
